<?xml version="1.0" encoding="utf-8"?>
<!-- Generator: Adobe Illustrator 17.0.0, SVG Export Plug-In . SVG Version: 6.00 Build 0)  -->
<!DOCTYPE svg PUBLIC "-//W3C//DTD SVG 1.1//EN" "http://www.w3.org/Graphics/SVG/1.1/DTD/svg11.dtd">
<svg version="1.1" id="Layer_1" xmlns="http://www.w3.org/2000/svg" xmlns:xlink="http://www.w3.org/1999/xlink" x="0px" y="0px"
	 width="800px" height="152.75px" viewBox="0 0 800 152.75" enable-background="new 0 0 800 152.75" xml:space="preserve">
<g>
	<g>
		<path fill="#231F20" d="M288.888,87.005c0,20.542-8.324,39.123-21.776,52.589l-52.589-52.589l52.589-52.589
			C280.564,47.882,288.888,66.463,288.888,87.005z"/>
		<path fill="#231F20" d="M214.523,87.005l-52.589,52.589c-13.452-13.466-21.776-32.047-21.776-52.589
			c0-20.542,8.324-39.123,21.776-52.589L214.523,87.005z"/>
		<path fill="#231F20" d="M75.7,1.752c20.542,0,39.123,8.324,52.589,21.776L75.7,76.117L23.112,23.528
			C36.578,10.076,55.159,1.752,75.7,1.752z"/>
		<path fill="#231F20" d="M75.7,76.117l52.589,52.589c-13.466,13.452-32.047,21.776-52.589,21.776
			c-20.542,0-39.123-8.324-52.589-21.776L75.7,76.117z"/>
	</g>
	<g>
		<path fill="#231F20" d="M267.112,34.416l-52.589,52.589l-52.589-52.589C175.4,20.964,193.995,12.64,214.523,12.64
			C235.051,12.64,253.646,20.964,267.112,34.416z"/>
		<path fill="#231F20" d="M23.112,23.528L75.7,76.117l-52.589,52.589C9.659,115.24,1.336,96.645,1.336,76.117
			C1.336,55.589,9.659,36.994,23.112,23.528z"/>
		
			<rect x="83.653" y="56.918" transform="matrix(0.7071 -0.7071 0.7071 0.7071 -23.6981 95.0215)" fill="#231F20" width="38.398" height="38.398"/>
	</g>
	<path fill="#231F20" d="M579.696,65.346V3.871h7.898v53.484h32.109v7.991H579.696z M545.738,65.346V3.871h7.898v61.475H545.738z
		 M517.178,65.346l-5.367-10.734h-31.206l-5.46,10.734h-8.876l29.89-59.78l29.89,59.78H517.178z M484.502,46.714h23.315
		L496.159,23.4L484.502,46.714z M440.899,65.346V24.996l-22.747,22.847l-22.836-22.836v40.34h-7.898V5.81l30.736,30.736
		l30.831-30.743v59.543H440.899z M323.757,65.346V3.871h40.007v7.991h-32.109v18.843h32.109v7.898h-32.109v18.751h32.109v7.991
		H323.757z"/>
	<path fill="#231F20" d="M758.657,150.998V89.523h40.007v7.992h-32.109v18.843h32.109v7.898h-32.109v18.751h32.109v7.991H758.657z
		 M686.669,150.998V89.523h20.003c4.169,0,8.155,0.818,11.85,2.431c3.708,1.619,7.006,3.857,9.805,6.653
		c2.795,2.796,5.033,6.094,6.653,9.804c1.612,3.692,2.429,7.68,2.429,11.85c0,4.17-0.817,8.158-2.429,11.85
		c-1.622,3.713-3.846,7.014-6.613,9.811c-2.763,2.792-6.058,5.029-9.795,6.645c-3.723,1.614-7.727,2.432-11.901,2.432H686.669z
		 M694.567,143.007h12.105c3.132,0,6.116-0.597,8.868-1.777c2.745-1.176,5.181-2.834,7.239-4.925
		c2.053-2.084,3.689-4.53,4.862-7.269c1.18-2.752,1.777-5.703,1.777-8.775s-0.597-6.023-1.777-8.774
		c-1.173-2.739-2.827-5.187-4.917-7.278c-2.09-2.089-4.538-3.743-7.276-4.917c-2.751-1.178-5.703-1.776-8.777-1.776h-12.105V143.007
		z M639.958,150.998c-6.877,0-12.905-2.484-17.918-7.381c-4.876-4.992-7.36-11.052-7.36-17.989V89.523h7.898v36.105
		c0,4.8,1.691,8.924,5.029,12.259c3.397,3.397,7.553,5.121,12.351,5.121c4.801,0,8.929-1.726,12.268-5.13
		c3.447-3.38,5.204-7.507,5.204-12.249V89.523h7.991v36.105c0,6.992-2.511,13.047-7.463,17.999
		C652.954,148.514,646.895,150.998,639.958,150.998z M571.282,150.998V97.515h-21.467v-7.992h50.833v7.992h-21.374v53.483H571.282z
		 M520.669,150.998V89.523h7.898v61.475H520.669z M470.054,150.998V97.515h-21.467v-7.992h50.833v7.992h-21.374v53.483H470.054z
		 M395.846,150.998V89.523h21.797c5.532,0,10.148,1.927,14.112,5.891c3.963,3.964,5.89,8.611,5.89,14.206
		c0,5.537-1.928,10.187-5.896,14.212c-3.95,3.893-8.568,5.792-14.105,5.792h-13.9v21.374H395.846z M403.743,121.632h13.9
		c3.263,0,6.112-1.193,8.463-3.547c2.354-2.354,3.549-5.203,3.549-8.465c0-3.322-1.193-6.2-3.549-8.557
		c-2.356-2.354-5.203-3.547-8.463-3.547h-13.9V121.632z M367.286,150.998l-5.367-10.733h-31.207l-5.459,10.733h-8.877l29.889-59.78
		l29.89,59.78H367.286z M334.609,132.367h23.314l-11.657-23.315L334.609,132.367z"/>
</g>
</svg>
